<svg xmlns="http://www.w3.org/2000/svg" version="1.1" xmlns:xlink="http://www.w3.org/1999/xlink" width="512" height="512"><svg xmlns="http://www.w3.org/2000/svg" version="1.1" xmlns:xlink="http://www.w3.org/1999/xlink" width="512" height="512"><svg width="512" height="512" viewBox="0 0 512 512" fill="none" xmlns="http://www.w3.org/2000/svg">
<path d="M362.3 294.718C362.032 293.379 361.764 291.951 361.496 290.612V290.434C360.158 284.008 358.283 277.76 355.963 271.691H428.168C461.013 271.691 455.212 222.334 438.164 191.096C435.398 198.057 431.113 204.662 425.491 210.285C402.999 232.777 366.584 232.777 344.092 210.285C321.601 187.793 321.601 151.289 344.092 128.887C345.699 127.28 347.484 125.763 349.269 124.335C332.311 118.534 314.639 114.874 296.788 113.357C282.508 112.018 267.96 111.572 253.59 112.464C219.228 114.606 185.758 127.37 158.893 148.79C126.852 174.049 104.36 211.178 97.4875 251.341C94.81 266.157 94.096 280.705 95.7917 294.718H16V325.421H103.557C108.644 338.005 115.963 349.876 125.781 360.765C149.522 387.005 185.223 402.089 220.656 399.679C254.661 397.537 285.364 372.546 295.182 339.969C298.573 328.366 300.269 315.782 298.127 303.822C295.003 286.328 283.668 270.531 268.138 261.605C258.053 255.715 244.933 252.502 233.508 253.394C221.995 254.287 211.106 259.999 203.43 268.835C195.665 277.671 191.47 289.898 192.274 301.769C193.166 313.282 200.931 324.082 211.463 328.991C222.263 334.257 235.65 333.9 244.397 324.707C250.645 318.281 253.947 308.106 250.645 299.359C247.343 290.523 236.9 284.365 227.528 286.685C221.192 288.292 215.836 294.361 215.301 301.68C215.122 303.286 212.713 303.286 212.623 301.59C212.623 297.485 213.873 293.29 216.283 289.898C219.853 284.811 225.833 281.419 232.08 281.241C242.434 280.795 252.519 286.953 256.893 296.235C260.552 303.643 260.195 312.39 257.428 319.976C250.556 338.452 231.456 346.663 212.802 341.665C195.041 337.291 180.939 321.761 178.261 303.732C173.531 271.066 198.611 239.381 231.188 235.365C271.708 230.367 311.069 259.285 319.28 299.091C321.065 307.749 321.511 316.585 320.887 325.242H496V294.539H362.389L362.3 294.718Z" fill="black"></path>
<path d="M371.225 169.586C374.973 165.837 381.043 165.837 384.791 169.586C388.54 173.334 388.54 179.404 384.791 183.152C381.043 186.901 374.973 186.901 371.225 183.152C367.476 179.404 367.476 173.334 371.225 169.586ZM354.267 200.11C371.136 216.979 398.447 216.979 415.316 200.11C432.184 183.241 432.184 155.93 415.316 139.061C398.447 122.193 371.136 122.193 354.267 139.061C337.398 155.93 337.398 183.241 354.267 200.11Z" fill="black"></path>
</svg></svg><style>@media (prefers-color-scheme: light) { :root { filter: none; } }
@media (prefers-color-scheme: dark) { :root { filter: invert(100%); } }
</style></svg>